<?xml version="1.0" standalone="no"?>
<!DOCTYPE svg PUBLIC "-//W3C//DTD SVG 20010904//EN"
 "http://www.w3.org/TR/2001/REC-SVG-20010904/DTD/svg10.dtd">
<svg version="1.0" xmlns="http://www.w3.org/2000/svg"
 width="613.000000pt" height="613.000000pt" viewBox="0 0 613.000000 613.000000"
 preserveAspectRatio="xMidYMid meet">

<g transform="translate(0.000000,613.000000) scale(0.100000,-0.100000)"
fill="#000000" stroke="none">
<path d="M4889 5918 c-134 -140 -219 -236 -219 -245 0 -7 -54 -78 -62 -81 -5
-2 -8 -8 -8 -14 0 -6 -10 -23 -22 -39 -62 -78 -158 -233 -158 -254 0 -8 -3
-15 -7 -17 -11 -4 -57 -77 -74 -115 -7 -18 -17 -33 -21 -33 -5 0 -8 -5 -8 -11
0 -6 -19 -45 -42 -86 -57 -100 -58 -101 -95 -159 -23 -36 -33 -63 -33 -91 0
-39 27 -79 126 -185 9 -9 14 -26 12 -38 -3 -19 -11 -14 -78 44 -41 36 -81 66
-88 66 -14 0 -72 -40 -72 -50 0 -3 23 -24 52 -45 93 -71 150 -136 134 -152 -5
-6 -92 63 -116 92 -13 15 -70 21 -70 7 0 -4 5 -13 12 -20 17 -17 -16 -16 -70
3 -24 9 -69 20 -100 24 -32 5 -75 14 -97 20 -22 6 -57 11 -77 11 -31 0 -38 4
-38 20 0 18 7 20 80 20 64 0 80 3 80 15 0 12 -13 15 -60 15 -33 0 -60 4 -60
10 0 11 12 13 49 10 26 -2 71 18 71 32 0 11 -41 10 -77 -2 -22 -8 -36 -7 -58
4 -37 20 -55 6 -55 -43 -1 -63 -16 -73 -117 -74 l-88 -2 1 55 c1 30 5 80 9
111 8 61 -3 81 -32 57 -13 -10 -17 -10 -20 0 -3 6 -10 12 -17 12 -7 0 -29 11
-48 24 -42 28 -104 50 -117 41 -16 -10 -1 -32 29 -45 26 -11 28 -15 19 -32
-12 -23 4 -40 28 -31 20 8 94 -18 90 -31 -2 -6 -23 -11 -48 -11 -33 0 -44 -4
-47 -17 -3 -15 4 -18 38 -18 29 0 40 -4 37 -12 -2 -7 -19 -13 -38 -13 -28 0
-35 -4 -37 -22 -4 -26 9 -29 57 -12 23 8 36 8 43 1 20 -20 -10 -39 -70 -47
-31 -3 -66 -9 -77 -11 -14 -3 -27 5 -43 30 -16 24 -34 36 -58 40 -19 4 -34 11
-34 17 0 32 -85 170 -125 204 -14 11 -44 69 -71 135 -27 67 -63 107 -116 130
-27 11 -48 27 -48 34 0 8 -5 16 -10 18 -10 3 -31 84 -50 195 -17 101 -67 233
-88 233 -18 0 -61 -51 -62 -73 0 -11 -7 -44 -16 -74 -18 -63 -26 -61 -58 19
-18 44 -26 54 -49 56 -23 3 -30 -2 -45 -35 -14 -32 -17 -71 -17 -253 -1 -204
-2 -217 -23 -250 -68 -108 -80 -157 -74 -300 1 -25 -1 -111 -4 -192 -6 -138
-5 -149 15 -181 28 -46 26 -58 -15 -84 -29 -19 -36 -20 -40 -8 -11 27 -41 16
-58 -20 -11 -22 -24 -35 -36 -35 -11 0 -26 -12 -34 -27 -8 -16 -23 -35 -34
-44 -11 -9 -39 -43 -63 -75 -24 -33 -47 -60 -51 -62 -5 -2 -8 -12 -8 -23 0
-10 -4 -19 -9 -19 -5 0 -15 -15 -22 -32 -7 -18 -21 -40 -31 -48 -38 -33 -106
-202 -123 -306 -5 -35 -12 -43 -44 -57 -21 -10 -46 -17 -57 -17 -21 0 -144
-35 -189 -55 -17 -7 -44 -15 -61 -19 -44 -10 -64 -50 -64 -129 0 -48 -4 -70
-17 -82 -9 -10 -24 -31 -34 -49 -15 -28 -21 -31 -70 -32 -79 -2 -79 -2 -79
-22 0 -30 21 -42 72 -42 l48 0 0 -40 c0 -45 -13 -56 -81 -66 -59 -8 -171 -43
-188 -59 -7 -7 -10 -18 -6 -25 8 -13 24 -11 140 19 108 28 105 29 105 -24 0
-38 -4 -47 -22 -54 -29 -11 -68 -45 -68 -59 0 -15 25 -22 41 -11 33 21 46 10
58 -48 16 -81 16 -80 -41 -97 -70 -21 -82 -30 -83 -61 -2 -27 -108 -155 -130
-155 -7 0 -26 -15 -44 -32 -17 -18 -71 -74 -119 -123 -83 -86 -121 -118 -168
-140 -54 -26 -143 -101 -144 -121 0 -13 -18 -36 -44 -58 -25 -20 -48 -46 -52
-59 -4 -12 -22 -40 -40 -63 -19 -23 -34 -46 -34 -52 0 -6 -6 -17 -13 -24 -7
-7 -25 -34 -40 -60 -15 -26 -42 -62 -60 -81 -37 -40 -103 -167 -111 -215 -3
-18 -18 -58 -32 -88 -26 -56 -35 -83 -57 -177 -9 -40 -9 -50 5 -63 23 -23 33
-13 48 53 14 62 34 109 56 131 8 7 14 21 14 31 0 10 14 35 30 56 17 21 30 46
30 57 0 10 8 21 18 24 9 4 31 12 47 19 59 25 94 26 115 5 11 -11 20 -29 20
-40 0 -11 4 -20 8 -20 5 0 15 -15 24 -32 9 -18 29 -41 46 -51 l30 -17 31 37
c38 47 41 61 38 258 l-2 159 -27 15 c-23 13 -32 14 -65 2 -21 -8 -50 -22 -65
-32 -26 -19 -58 -25 -58 -12 0 16 46 72 62 77 11 2 18 14 18 28 0 18 13 34 48
58 26 18 49 35 51 37 2 1 4 15 5 29 1 20 10 31 33 43 18 9 35 24 39 34 3 9 10
17 16 17 5 0 19 11 29 24 11 13 40 34 66 47 25 12 75 49 111 81 35 32 69 58
74 58 5 0 24 7 41 15 94 43 216 75 287 75 25 0 85 -14 135 -30 49 -17 97 -30
105 -31 8 0 34 -10 56 -22 23 -12 72 -38 109 -57 37 -19 70 -41 72 -47 3 -7
11 -13 18 -13 7 0 15 -7 19 -15 3 -8 10 -15 16 -15 6 0 29 -16 50 -36 22 -20
49 -43 60 -51 l20 -14 -22 -19 -23 -19 41 -38 c23 -21 54 -43 70 -48 20 -7 29
-17 29 -33 0 -21 24 -42 66 -58 8 -3 24 -22 35 -42 16 -31 55 -79 112 -138 6
-7 12 -16 12 -21 0 -4 10 -19 23 -33 70 -77 117 -168 117 -228 0 -32 6 -58 18
-73 24 -32 52 -108 52 -143 0 -17 13 -45 32 -69 l33 -41 4 -161 c2 -88 3 -173
2 -190 -1 -16 -3 -43 -4 -60 -3 -46 25 -44 46 3 19 44 21 64 8 77 -5 6 -6 72
-1 160 4 82 4 156 0 165 -3 8 -16 34 -28 57 -12 23 -22 57 -22 75 0 18 -7 42
-15 52 -8 11 -15 28 -15 37 0 10 -7 22 -16 27 -9 5 -23 43 -35 96 -24 109 -52
165 -118 236 -28 30 -51 62 -51 70 0 9 -22 35 -50 59 -34 30 -50 51 -50 67 0
18 -12 32 -47 54 -26 17 -55 30 -64 30 -12 0 -19 9 -21 26 -2 15 -12 32 -22
38 -27 15 -44 28 -67 51 l-20 20 28 5 c27 5 27 6 -42 73 -39 37 -78 70 -87 73
-10 3 -18 12 -18 20 0 8 -6 14 -13 14 -7 0 -27 13 -44 30 -16 16 -41 34 -54
40 -13 6 -44 22 -69 36 -46 26 -136 62 -179 70 -13 3 -33 11 -45 19 -11 8 -30
15 -41 15 -12 0 -26 5 -33 12 -7 7 -42 13 -78 14 -55 2 -78 -3 -131 -27 -67
-30 -103 -37 -103 -19 0 6 10 14 23 19 12 5 45 33 74 62 28 30 63 65 77 79 14
13 26 30 26 38 0 13 27 27 72 36 26 6 27 8 22 54 -2 26 -10 77 -16 114 -9 56
-8 86 7 175 28 174 61 284 90 305 5 4 10 28 11 55 3 58 18 101 39 110 20 7 80
-20 123 -55 25 -21 35 -38 39 -70 5 -35 9 -42 28 -42 29 0 39 34 20 71 -8 15
-37 47 -65 71 -27 24 -50 49 -50 56 0 15 12 16 27 1 9 -9 20 -9 44 0 43 15 46
14 52 -9 4 -15 14 -20 40 -20 26 0 36 -5 40 -20 4 -16 11 -19 36 -14 24 5 31
3 31 -9 0 -18 29 -37 54 -37 9 0 16 7 16 15 0 8 -4 15 -9 15 -5 0 -30 20 -55
45 -30 28 -57 45 -72 45 -36 0 -33 37 4 46 51 13 67 45 102 209 19 90 61 174
88 175 6 0 12 5 12 10 0 6 15 32 32 58 34 49 53 80 74 120 16 31 73 82 105 94
14 5 31 20 38 35 9 20 16 24 36 19 15 -4 27 -1 32 7 4 7 29 30 56 51 44 36 49
38 65 22 23 -20 58 -21 66 -1 3 8 10 15 17 15 6 0 18 9 27 19 10 11 33 28 52
38 19 10 47 27 62 37 16 10 35 15 44 12 14 -5 97 22 134 45 31 19 104 46 165
61 272 67 381 82 545 74 169 -9 348 -39 518 -89 62 -18 72 -24 70 -41 -3 -19
2 -21 64 -21 91 -1 112 -21 32 -30 -33 -3 -66 -7 -74 -8 -8 -1 -15 -9 -15 -17
0 -12 15 -15 75 -15 41 0 89 -4 106 -9 27 -7 31 -5 42 19 7 15 20 78 29 141
19 133 13 168 -39 224 -18 20 -42 52 -52 72 -20 36 -20 37 0 75 10 20 34 61
52 90 17 29 32 55 32 59 0 7 50 94 82 143 10 14 20 33 24 41 13 36 88 176 100
191 8 8 14 19 14 23 0 9 74 126 94 149 9 9 16 20 16 23 0 6 51 76 61 84 4 3 9
14 13 26 3 11 23 39 44 61 61 68 90 103 95 117 3 8 29 33 57 55 50 39 80 51
80 32 0 -5 7 -71 16 -148 20 -172 24 -795 6 -888 -6 -33 -16 -107 -22 -165 -6
-58 -15 -121 -22 -140 -16 -50 -57 -86 -103 -93 -151 -22 -207 -35 -224 -53
-26 -29 -41 -59 -41 -86 0 -13 -16 -59 -35 -103 -47 -108 -45 -154 4 -123 18
11 35 5 133 -46 234 -121 269 -145 261 -176 -4 -14 0 -20 10 -20 8 0 17 -3 19
-7 4 -11 85 -63 97 -63 5 0 11 -7 15 -15 3 -8 11 -15 18 -15 7 0 18 -8 25 -18
9 -15 7 -21 -9 -31 -20 -12 -20 -13 8 -34 15 -12 39 -32 51 -44 13 -13 28 -23
33 -23 6 0 10 -4 10 -10 0 -5 9 -19 20 -30 16 -16 18 -25 11 -39 -8 -15 -5
-25 16 -47 38 -41 63 -86 63 -112 0 -13 15 -42 33 -65 45 -57 89 -150 81 -170
-3 -10 0 -27 8 -40 8 -12 17 -33 20 -47 6 -24 26 -81 67 -185 10 -27 25 -66
32 -85 6 -19 20 -56 31 -82 10 -26 18 -54 18 -64 0 -16 17 -75 47 -164 11 -31
17 -98 20 -210 5 -177 5 -177 73 -295 19 -32 29 -65 29 -92 1 -24 5 -43 10
-43 5 0 14 -15 21 -32 7 -18 21 -51 30 -73 10 -22 21 -61 24 -88 6 -38 4 -48
-8 -53 -22 -8 -20 -20 7 -57 54 -76 71 -127 42 -127 -20 0 -19 -37 1 -48 16
-9 41 -63 51 -112 3 -14 14 -54 24 -89 10 -35 19 -76 19 -91 0 -31 24 -58 35
-40 11 18 -6 179 -26 255 -10 38 -19 81 -19 94 0 13 -7 49 -16 80 -18 64 -26
97 -50 200 -9 41 -32 104 -50 140 -17 36 -35 89 -39 118 -4 30 -19 71 -36 98
-16 25 -29 52 -29 60 0 7 -4 17 -10 20 -6 4 -10 64 -10 148 0 144 -1 147 -52
302 -6 17 -14 55 -19 85 -5 30 -16 69 -23 85 -8 17 -17 51 -20 77 -4 26 -11
50 -17 53 -5 4 -9 15 -9 25 0 11 -9 35 -20 55 -11 20 -20 43 -20 53 0 9 -9 32
-20 50 -11 17 -22 51 -26 75 -6 45 -28 111 -44 130 -5 7 -23 28 -40 48 -16 20
-30 45 -30 54 0 31 -23 99 -42 124 -10 13 -18 37 -18 53 0 27 -9 44 -38 71
-44 40 -56 55 -67 82 -20 45 -104 145 -155 183 -25 19 -49 47 -55 62 -9 27
-142 140 -163 140 -6 0 -12 4 -14 8 -6 15 -83 55 -118 62 -30 5 -35 9 -33 33
1 17 -3 27 -13 28 -8 1 -18 3 -24 4 -5 1 -17 3 -25 4 -8 0 -15 5 -15 11 0 13
98 1 132 -16 37 -19 60 -18 56 3 -4 23 -45 43 -88 43 -51 0 -112 19 -107 33 7
19 114 8 195 -20 40 -14 75 -30 78 -34 3 -5 16 -9 30 -9 19 0 25 5 22 18 -5
27 -107 71 -195 83 -43 6 -85 18 -93 26 -13 14 -2 15 108 9 102 -5 122 -4 122
8 0 21 -23 26 -126 26 -52 0 -94 4 -94 8 0 20 28 32 72 32 59 0 178 32 212 57
29 21 35 32 48 88 41 179 65 683 46 965 -4 58 -11 159 -14 225 -7 135 -13 156
-50 190 -41 38 -76 33 -125 -17z m-2288 -414 c4 -16 14 -49 23 -74 16 -48 46
-211 46 -251 0 -25 48 -89 66 -89 6 0 19 -8 30 -18 10 -10 26 -21 35 -24 17
-7 83 -126 93 -169 3 -15 26 -49 51 -77 25 -27 45 -55 45 -60 0 -6 5 -12 10
-14 6 -2 25 -32 43 -68 26 -53 37 -66 59 -68 25 -3 43 -25 33 -42 -5 -8 -16
-11 -111 -29 -28 -5 -68 -16 -88 -25 -21 -9 -48 -16 -60 -16 -12 0 -31 -7 -42
-15 -10 -8 -32 -15 -49 -15 -16 0 -41 -9 -55 -20 -14 -11 -33 -20 -42 -20 -37
0 -175 -54 -209 -81 -20 -16 -41 -29 -47 -29 -5 0 -12 -7 -16 -15 -3 -9 -19
-15 -41 -15 -29 0 -37 5 -47 28 -6 15 -20 46 -31 70 -20 44 -20 69 -1 270 5
56 8 62 28 62 28 0 46 36 46 91 0 47 -14 79 -35 79 -24 0 -17 34 17 81 l32 44
2 227 c1 125 7 235 12 244 8 14 13 9 31 -32 41 -90 43 -151 15 -345 -4 -32 -3
-49 6 -54 20 -13 30 9 36 80 8 103 38 252 68 335 9 25 16 56 16 68 0 33 23 23
31 -14z m-251 -733 c0 -12 -31 -51 -40 -51 -13 0 -22 35 -14 64 6 24 7 25 30
9 13 -8 24 -18 24 -22z m1865 -237 c32 -33 44 -54 29 -54 -8 0 -74 72 -74 81
0 16 10 10 45 -27z m-3707 -3074 c-1 -210 -13 -222 -88 -81 -7 14 -21 34 -31
45 -18 18 -23 19 -72 8 -125 -30 -130 -28 -72 34 19 20 35 41 35 45 0 5 5 9
10 9 6 0 32 15 58 33 83 56 136 80 154 70 4 -2 7 -75 6 -163z"/>
<path d="M2447 4899 c-22 -13 -47 -61 -47 -93 0 -41 31 -96 59 -103 31 -8 85
21 100 53 17 39 13 71 -15 114 -28 42 -59 51 -97 29z m67 -35 c21 -20 22 -107
2 -124 -23 -18 -59 -8 -75 22 -17 29 -9 47 12 30 18 -16 39 1 35 29 -2 18 -9
23 -26 22 -24 -3 -28 7 -10 25 17 17 44 15 62 -4z"/>
<path d="M3774 5823 c-21 -27 -43 -54 -49 -61 -5 -7 -34 -38 -63 -69 -29 -31
-66 -81 -84 -112 -17 -31 -35 -57 -40 -59 -4 -2 -8 -12 -8 -21 0 -10 -9 -30
-20 -44 -11 -14 -20 -28 -20 -32 0 -3 -15 -38 -34 -78 -19 -40 -41 -92 -51
-117 -9 -25 -25 -63 -35 -85 -10 -22 -24 -57 -30 -77 -6 -21 -15 -40 -20 -43
-14 -9 -21 -91 -10 -119 11 -29 47 -65 65 -66 6 0 16 -9 23 -20 7 -11 21 -20
32 -20 30 0 25 34 -7 56 -29 18 -39 27 -62 57 -12 15 -8 31 29 125 116 292
122 307 190 441 17 32 37 64 45 71 8 7 15 19 15 26 0 8 3 14 8 14 4 0 16 16
26 35 11 19 23 35 28 35 4 0 8 5 8 10 0 6 23 33 50 60 28 27 50 54 50 59 0 5
10 13 22 17 32 10 45 -17 53 -110 7 -87 0 -509 -13 -712 -8 -134 -15 -152 -75
-174 -92 -35 -117 -51 -123 -76 -9 -35 5 -42 69 -33 28 3 55 5 60 2 4 -2 7 3
7 11 0 9 -7 16 -16 16 -31 0 -7 25 39 40 85 27 89 37 92 202 1 80 5 150 9 157
7 10 19 220 18 291 -4 207 -27 406 -50 433 -9 10 -29 17 -52 17 -33 0 -43 -6
-76 -47z"/>
<path d="M2442 3601 c-47 -19 -122 -85 -122 -107 0 -8 -4 -14 -8 -14 -11 0
-32 -45 -32 -67 0 -9 -9 -35 -20 -58 l-20 -41 24 -83 c26 -90 39 -108 106
-154 43 -30 49 -31 150 -32 98 0 108 2 153 29 26 16 67 50 90 77 27 32 50 49
65 49 13 0 22 6 22 15 0 8 -7 15 -15 15 -11 0 -15 11 -15 38 0 20 -7 62 -16
92 -8 30 -19 69 -23 86 -5 18 -24 56 -44 85 -32 49 -42 56 -94 72 -73 21 -144
20 -201 -2z m184 -47 c36 -15 71 -54 96 -104 21 -44 37 -174 27 -219 -21 -95
-184 -171 -309 -142 -24 5 -46 15 -48 20 -2 6 -10 11 -18 11 -8 0 -14 4 -14 8
0 5 -9 19 -20 32 -33 39 -31 187 4 263 61 132 164 180 282 131z"/>
<path d="M2372 3395 c-41 -52 -35 -157 10 -168 45 -12 73 3 86 44 16 52 15 84
-3 119 -20 39 -65 41 -93 5z"/>
<path d="M1410 3214 c-19 -22 6 -44 57 -51 49 -6 61 8 36 42 -21 29 -73 34
-93 9z"/>
<path d="M2386 2791 c-4 -5 -2 -20 3 -33 8 -21 20 -26 88 -36 43 -7 121 -17
173 -22 52 -5 109 -14 125 -18 17 -5 66 -12 110 -16 44 -4 116 -15 160 -26 44
-11 134 -29 200 -41 108 -19 165 -33 250 -59 16 -6 33 -6 38 -1 12 12 -19 40
-51 47 -15 3 -43 11 -62 18 -89 33 -110 39 -185 57 -44 10 -96 23 -115 29 -19
5 -49 10 -67 10 -18 0 -52 6 -75 14 -44 13 -202 43 -383 71 -112 17 -201 20
-209 6z"/>
<path d="M2093 2719 c-17 -17 -17 -54 0 -67 7 -6 64 -20 127 -31 109 -19 200
-42 245 -60 51 -21 122 -41 146 -41 14 0 30 -5 36 -11 6 -6 35 -17 65 -24 29
-7 67 -18 83 -23 17 -6 44 -15 60 -20 188 -61 235 -77 262 -89 17 -7 38 -13
47 -13 9 0 35 -8 59 -19 78 -34 98 -41 145 -52 26 -5 50 -15 53 -21 4 -6 30
-13 58 -16 69 -6 68 16 -1 46 -29 13 -72 32 -96 42 -23 11 -47 20 -53 20 -6 0
-25 6 -42 14 -18 8 -68 26 -112 41 -44 14 -91 32 -105 39 -29 15 -56 25 -209
77 -62 22 -123 39 -135 39 -12 0 -39 9 -61 20 -22 11 -49 20 -61 20 -12 0 -35
7 -50 15 -16 8 -37 15 -46 15 -15 0 -225 64 -303 92 -49 18 -99 21 -112 7z"/>
<path d="M1323 2584 c-8 -21 5 -30 49 -37 44 -7 57 7 32 34 -21 23 -72 25 -81
3z"/>
<path d="M2312 2398 c-30 -30 -13 -52 76 -96 48 -24 148 -74 222 -112 74 -38
161 -80 192 -94 31 -14 60 -31 63 -36 3 -6 13 -10 21 -10 7 0 36 -16 63 -35
26 -19 54 -35 61 -35 8 0 21 -7 31 -16 9 -8 29 -14 44 -12 l26 3 -27 33 c-15
17 -33 32 -39 32 -7 0 -15 7 -19 15 -3 8 -10 15 -17 15 -6 0 -29 15 -52 33
-23 17 -52 38 -64 45 -56 30 -68 38 -85 53 -24 20 -359 189 -376 189 -7 0 -25
6 -40 14 -45 23 -67 27 -80 14z"/>
<path d="M1070 1281 c-20 -4 -57 -17 -83 -29 -26 -12 -67 -31 -92 -43 -25 -11
-45 -24 -45 -28 0 -3 -25 -24 -54 -46 -55 -39 -72 -68 -60 -100 6 -14 21 -16
109 -13 l102 3 49 -44 c54 -50 62 -61 100 -144 29 -64 74 -117 97 -117 31 0
43 29 60 146 16 100 17 129 7 184 -7 36 -14 79 -17 95 -2 17 -11 44 -19 62 -8
17 -14 38 -14 46 0 25 -77 40 -140 28z m83 -76 c36 -49 60 -276 41 -374 -9
-42 -23 -35 -53 25 -13 27 -27 51 -31 54 -4 3 -11 16 -15 30 -8 25 -62 79 -80
80 -6 0 -18 9 -27 19 -22 26 -81 36 -126 23 -76 -23 -57 22 23 57 12 5 27 16
34 25 7 9 21 16 30 16 9 0 28 8 41 17 84 59 134 68 163 28z"/>
<path d="M6047 978 c-22 -12 -23 -104 -2 -144 10 -19 15 -58 15 -114 0 -80 9
-110 32 -110 14 0 28 39 34 97 4 45 1 70 -15 110 -11 28 -17 60 -14 72 8 29
-5 88 -20 94 -7 3 -21 1 -30 -5z"/>
<path d="M1803 636 c-49 -20 -105 -64 -214 -167 -82 -76 -62 -104 74 -105 l90
-1 51 -55 c28 -30 66 -71 84 -91 50 -55 67 -62 93 -36 21 21 22 28 17 168 -6
166 -26 254 -64 289 -31 27 -63 27 -131 -2z m95 -78 c11 -18 22 -58 26 -89 3
-31 13 -75 21 -99 27 -76 15 -147 -22 -124 -9 6 -21 19 -27 30 -6 10 -19 25
-28 32 -10 7 -18 21 -18 32 0 11 -18 28 -47 45 -41 23 -56 26 -106 22 -70 -6
-84 10 -43 48 15 14 29 25 32 25 2 0 19 14 37 30 41 40 106 78 134 79 14 1 28
-10 41 -31z"/>
</g>
</svg>
